<?xml version="1.0" standalone="no"?>
<svg xmlns:xlink="http://www.w3.org/1999/xlink" id="wave" style="transform:rotate(0deg); transition: 0.3s" viewBox="0 0 1440 480" version="1.1" xmlns="http://www.w3.org/2000/svg"><defs><linearGradient id="sw-gradient-0" x1="0" x2="0" y1="1" y2="0"><stop stop-color="rgba(74, 115, 252, 1)" offset="0%"/><stop stop-color="rgba(74, 115, 252, 1)" offset="100%"/></linearGradient></defs><path style="transform:translate(0, 0px); opacity:1" fill="url(#sw-gradient-0)" d="M0,48L40,96C80,144,160,240,240,264C320,288,400,240,480,208C560,176,640,160,720,192C800,224,880,304,960,320C1040,336,1120,288,1200,232C1280,176,1360,112,1440,80C1520,48,1600,48,1680,56C1760,64,1840,80,1920,128C2000,176,2080,256,2160,256C2240,256,2320,176,2400,128C2480,80,2560,64,2640,104C2720,144,2800,240,2880,280C2960,320,3040,304,3120,320C3200,336,3280,384,3360,368C3440,352,3520,272,3600,232C3680,192,3760,192,3840,184C3920,176,4000,160,4080,144C4160,128,4240,112,4320,144C4400,176,4480,256,4560,272C4640,288,4720,240,4800,200C4880,160,4960,128,5040,152C5120,176,5200,256,5280,280C5360,304,5440,272,5520,288C5600,304,5680,368,5720,400L5760,432L5760,480L5720,480C5680,480,5600,480,5520,480C5440,480,5360,480,5280,480C5200,480,5120,480,5040,480C4960,480,4880,480,4800,480C4720,480,4640,480,4560,480C4480,480,4400,480,4320,480C4240,480,4160,480,4080,480C4000,480,3920,480,3840,480C3760,480,3680,480,3600,480C3520,480,3440,480,3360,480C3280,480,3200,480,3120,480C3040,480,2960,480,2880,480C2800,480,2720,480,2640,480C2560,480,2480,480,2400,480C2320,480,2240,480,2160,480C2080,480,2000,480,1920,480C1840,480,1760,480,1680,480C1600,480,1520,480,1440,480C1360,480,1280,480,1200,480C1120,480,1040,480,960,480C880,480,800,480,720,480C640,480,560,480,480,480C400,480,320,480,240,480C160,480,80,480,40,480L0,480Z"/></svg>